<svg xmlns="http://www.w3.org/2000/svg" width="1400" height="820" viewBox="0 0 1400 820" role="img" aria-labelledby="title desc">
  <title id="title">Polymer-filler contact and interaction-energy summary</title>
  <desc id="desc">Aggregate comparison of uncoated direct PP-brucite contact, coated direct PP-brucite contact, and coated PP-contact with the coating layer.</desc>
  <rect width="1400" height="820" fill="#f7f8f6"/>
  <text x="70" y="86" font-family="Inter, Arial, sans-serif" font-size="40" font-weight="700" fill="#17201b">Polypropylene And Brucite Interface Summary</text>
  <text x="70" y="126" font-family="Inter, Arial, sans-serif" font-size="21" fill="#5b665f">Aggregate contact and LJ interaction evidence from committed MD analysis tables</text>

  <g font-family="Inter, Arial, sans-serif">
    <text x="90" y="195" font-size="26" font-weight="700" fill="#17201b">Mean contact count within 0.60 nm</text>
    <line x1="90" y1="610" x2="630" y2="610" stroke="#5b665f" stroke-width="2"/>
    <line x1="90" y1="250" x2="90" y2="610" stroke="#5b665f" stroke-width="2"/>

    <rect x="150" y="567" width="90" height="43" fill="#315c8c"/>
    <text x="105" y="640" font-size="17" fill="#35413b">Uncoated</text>
    <text x="102" y="664" font-size="17" fill="#35413b">PP-BRC</text>
    <text x="138" y="552" font-size="18" font-weight="700" fill="#17201b">6,827</text>

    <rect x="330" y="599" width="90" height="11" fill="#0f766e"/>
    <text x="294" y="640" font-size="17" fill="#35413b">Coated</text>
    <text x="292" y="664" font-size="17" fill="#35413b">PP-BRC</text>
    <text x="322" y="584" font-size="18" font-weight="700" fill="#17201b">1,677</text>

    <rect x="510" y="250" width="90" height="360" fill="#9a5b13"/>
    <text x="468" y="640" font-size="17" fill="#35413b">Coated</text>
    <text x="433" y="664" font-size="17" fill="#35413b">PP coating layer</text>
    <text x="497" y="235" font-size="18" font-weight="700" fill="#17201b">57,323</text>

    <text x="760" y="195" font-size="26" font-weight="700" fill="#17201b">Mean LJ interaction energy</text>
    <line x1="760" y1="430" x2="1300" y2="430" stroke="#5b665f" stroke-width="2"/>
    <line x1="760" y1="250" x2="760" y2="610" stroke="#5b665f" stroke-width="2"/>

    <rect x="820" y="430" width="90" height="66" fill="#315c8c"/>
    <text x="782" y="640" font-size="17" fill="#35413b">Uncoated</text>
    <text x="780" y="664" font-size="17" fill="#35413b">PP-BRC</text>
    <text x="803" y="520" font-size="18" font-weight="700" fill="#17201b">-6,031</text>

    <rect x="1000" y="430" width="90" height="15" fill="#0f766e"/>
    <text x="965" y="640" font-size="17" fill="#35413b">Coated</text>
    <text x="963" y="664" font-size="17" fill="#35413b">PP-BRC</text>
    <text x="987" y="470" font-size="18" font-weight="700" fill="#17201b">-1,388</text>

    <rect x="1180" y="430" width="90" height="180" fill="#9a5b13"/>
    <text x="1138" y="640" font-size="17" fill="#35413b">Coated</text>
    <text x="1103" y="664" font-size="17" fill="#35413b">PP coating layer</text>
    <text x="1158" y="632" font-size="18" font-weight="700" fill="#17201b">-32,704</text>

    <rect x="70" y="720" width="1260" height="58" rx="8" fill="#ffffff" stroke="#dfe5df" stroke-width="2"/>
    <text x="95" y="757" font-size="19" fill="#17201b">Interpretation: coating lowers direct PP-brucite contact and shifts interaction toward the coating layer; values are force-field-dependent aggregate MD outputs.</text>
  </g>
</svg>
